<?xml version="1.0" encoding="UTF-8"?>
<svg xmlns="http://www.w3.org/2000/svg" xmlns:xlink="http://www.w3.org/1999/xlink" width="0" height="0">

<symbol id="like" width="18" height="16" viewBox="0 0 18 16" fill="none">
<path d="M15.6301 2.45753C15.247 2.07428 14.7922 1.77026 14.2916 1.56284C13.791 1.35542 13.2545 1.24866 12.7126 1.24866C12.1707 1.24866 11.6342 1.35542 11.1336 1.56284C10.633 1.77026 10.1782 2.07428 9.79509 2.45753L9.00009 3.25253L8.20509 2.45753C7.43132 1.68376 6.38186 1.24906 5.28759 1.24906C4.19331 1.24906 3.14386 1.68376 2.37009 2.45753C1.59632 3.2313 1.16162 4.28075 1.16162 5.37503C1.16162 6.4693 1.59632 7.51876 2.37009 8.29253L3.16509 9.08753L9.00009 14.9225L14.8351 9.08753L15.6301 8.29253C16.0133 7.90946 16.3174 7.45464 16.5248 6.95404C16.7322 6.45345 16.839 5.91689 16.839 5.37503C16.839 4.83316 16.7322 4.2966 16.5248 3.79601C16.3174 3.29542 16.0133 2.84059 15.6301 2.45753Z" stroke="white" stroke-opacity="0.8" stroke-width="1.5" stroke-linecap="round" stroke-linejoin="round"/>
</symbol>

<symbol id="dislike" width="18" height="16" viewBox="0 0 18 16" fill="none">
<path d="M15.6301 2.45753C15.247 2.07428 14.7922 1.77026 14.2916 1.56284C13.791 1.35542 13.2545 1.24866 12.7126 1.24866C12.1707 1.24866 11.6342 1.35542 11.1336 1.56284C10.633 1.77026 10.1782 2.07428 9.79509 2.45753L9.00009 3.25253L8.20509 2.45753C7.43132 1.68376 6.38186 1.24906 5.28759 1.24906C4.19331 1.24906 3.14386 1.68376 2.37009 2.45753C1.59632 3.2313 1.16162 4.28075 1.16162 5.37503C1.16162 6.4693 1.59632 7.51876 2.37009 8.29253L3.16509 9.08753L9.00009 14.9225L14.8351 9.08753L15.6301 8.29253C16.0133 7.90946 16.3174 7.45464 16.5248 6.95404C16.7322 6.45345 16.839 5.91689 16.839 5.37503C16.839 4.83316 16.7322 4.2966 16.5248 3.79601C16.3174 3.29542 16.0133 2.84059 15.6301 2.45753Z" fill="#3470FF" stroke="#3470FF" stroke-linecap="round" stroke-linejoin="round"/>
</symbol>

<symbol id="cross" width="16" height="16" viewBox="0 0 16 16">
    <path fill-rule="evenodd" clip-rule="evenodd" d="M4.11 2.697L2.698 4.11 6.586 8l-3.89 3.89 1.415 1.413L8 9.414l3.89 3.89 1.413-1.415L9.414 8l3.89-3.89-1.415-1.413L8 6.586l-3.89-3.89z"></path>
</symbol>

<symbol id="list" fill-rule="evenodd" height="150px" width="150px" version="1.1" viewBox="0 0 487.3 487.3" xml:space="preserve">
<g>
	<g>
		<path d="M487.2,69.7c0,12.9-10.5,23.4-23.4,23.4h-322c-12.9,0-23.4-10.5-23.4-23.4s10.5-23.4,23.4-23.4h322.1
			C476.8,46.4,487.2,56.8,487.2,69.7z M463.9,162.3H141.8c-12.9,0-23.4,10.5-23.4,23.4s10.5,23.4,23.4,23.4h322.1
			c12.9,0,23.4-10.5,23.4-23.4C487.2,172.8,476.8,162.3,463.9,162.3z M463.9,278.3H141.8c-12.9,0-23.4,10.5-23.4,23.4
			s10.5,23.4,23.4,23.4h322.1c12.9,0,23.4-10.5,23.4-23.4C487.2,288.8,476.8,278.3,463.9,278.3z M463.9,394.3H141.8
			c-12.9,0-23.4,10.5-23.4,23.4s10.5,23.4,23.4,23.4h322.1c12.9,0,23.4-10.5,23.4-23.4C487.2,404.8,476.8,394.3,463.9,394.3z
			 M38.9,30.8C17.4,30.8,0,48.2,0,69.7s17.4,39,38.9,39s38.9-17.5,38.9-39S60.4,30.8,38.9,30.8z M38.9,146.8
			C17.4,146.8,0,164.2,0,185.7s17.4,38.9,38.9,38.9s38.9-17.4,38.9-38.9S60.4,146.8,38.9,146.8z M38.9,262.8
			C17.4,262.8,0,280.2,0,301.7s17.4,38.9,38.9,38.9s38.9-17.4,38.9-38.9S60.4,262.8,38.9,262.8z M38.9,378.7
			C17.4,378.7,0,396.1,0,417.6s17.4,38.9,38.9,38.9s38.9-17.4,38.9-38.9C77.8,396.2,60.4,378.7,38.9,378.7z"/>
	</g>
</g>
</symbol>

<symbol id="contact" fill-rule="evenodd" height="150px" width="150px" version="1.1" viewBox="0 0 489.851 489.851" xml:space="preserve">
<g>
	<g>
		<path d="M395.249,30.951c18,8.2,34.8,18.4,47.6,33.3c7.9,9.4,12,20.2,12,33c0,13.5,0,27,0,40.5c-0.4,17.6-11.6,28.8-28.8,28.8
			c-10.9,0.4-21.7,0-33,0c-10.5,0-21,0-32.2,0c-18.7,0-29.6-10.9-29.6-29.6c0-13.5-0.4-26.6,0.4-40.1c0-3.7-1.1-4.9-4.1-6.4
			c-15.4-6.4-31.1-9.4-47.2-11.2c-32.6-3.4-64.8-2.6-96.6,4.5c-6.7,1.5-13.5,4.5-20.2,6c-3.4,1.1-4.5,3-4.5,6.7c0,13.5,0,27,0,40.5
			c0,18-11.2,29.2-28.8,28.8c-21.7,0-43.5,0-65.2,0c-18,0-29.2-11.2-29.6-29.6c-0.4-12.4,0.7-24.7-0.4-37.1
			c-0.7-18,6.4-31.8,19.5-43.5c18.4-16.1,40.5-26.2,63.7-34.5c51.7-18,105.3-24.3,160.3-19.5
			C318.849,5.551,357.849,13.751,395.249,30.951z"/>
		<circle cx="164.049" cy="382.751" r="26.4"/>
		<circle cx="164.049" cy="221.251" r="26.4"/>
		<circle cx="164.049" cy="301.951" r="26.4"/>
		<circle cx="244.849" cy="382.751" r="26.4"/>
		<circle cx="244.849" cy="221.251" r="26.4"/>
		<circle cx="244.849" cy="302.051" r="26.4"/>
		<circle cx="244.849" cy="463.451" r="26.4"/>
		<circle cx="325.649" cy="221.251" r="26.4"/>
		<circle cx="325.649" cy="302.051" r="26.4"/>
		<circle cx="325.649" cy="382.751" r="26.4"/>
	</g>
</g>
</symbol>

<symbol id="likebig" width="150" height="150" viewBox="0 0 18 16" fill="none">
<path d="M15.6301 2.45753C15.247 2.07428 14.7922 1.77026 14.2916 1.56284C13.791 1.35542 13.2545 1.24866 12.7126 1.24866C12.1707 1.24866 11.6342 1.35542 11.1336 1.56284C10.633 1.77026 10.1782 2.07428 9.79509 2.45753L9.00009 3.25253L8.20509 2.45753C7.43132 1.68376 6.38186 1.24906 5.28759 1.24906C4.19331 1.24906 3.14386 1.68376 2.37009 2.45753C1.59632 3.2313 1.16162 4.28075 1.16162 5.37503C1.16162 6.4693 1.59632 7.51876 2.37009 8.29253L3.16509 9.08753L9.00009 14.9225L14.8351 9.08753L15.6301 8.29253C16.0133 7.90946 16.3174 7.45464 16.5248 6.95404C16.7322 6.45345 16.839 5.91689 16.839 5.37503C16.839 4.83316 16.7322 4.2966 16.5248 3.79601C16.3174 3.29542 16.0133 2.84059 15.6301 2.45753Z" stroke="white" stroke-opacity="0.8" stroke-width="1.5" stroke-linecap="round" stroke-linejoin="round"/>
</symbol>

</svg>